<svg width="30" height="30" viewBox="0 0 30 30" fill="none" xmlns="http://www.w3.org/2000/svg">
<path d="M15 0C6.7285 0 0 6.72914 0 15C0 23.2709 6.7285 30 15 30C23.2715 30 30 23.2709 30 15C30 6.72914 23.2715 0 15 0ZM15 28.75C7.4182 28.75 1.24998 22.5818 1.24998 15C1.24998 7.4182 7.4182 1.24998 15 1.24998C22.5818 1.24998 28.75 7.4182 28.75 15C28.75 22.5818 22.5818 28.75 15 28.75Z" fill="#2499E4"/>
<path d="M20.9631 14.4745L12.2132 8.84947C12.0215 8.72438 11.7737 8.71764 11.576 8.82627C11.3745 8.93613 11.25 9.14613 11.25 9.375V20.625C11.25 20.8539 11.3745 21.0639 11.576 21.1737C11.6687 21.2244 11.7725 21.25 11.875 21.25C11.9922 21.25 12.1106 21.217 12.2132 21.1505L20.9631 15.5255C21.1414 15.4108 21.25 15.2124 21.25 15C21.25 14.7876 21.1414 14.5893 20.9631 14.4745ZM12.5 19.48V10.52L19.469 15L12.5 19.48Z" fill="#2499E4"/>
</svg>
